<svg width="14" height="18" viewBox="0 0 14 18" fill="none" xmlns="http://www.w3.org/2000/svg">
<g clip-path="url(#clip0_1273_2784)">
<path d="M10.168 4.58497C9.76267 4.58497 9.38187 4.64782 9.02547 4.77349C8.66909 4.89219 8.34765 5.01437 8.06115 5.14005C7.77464 5.26573 7.52308 5.32857 7.30646 5.32857C7.08285 5.32857 6.83128 5.26922 6.55177 5.15053C6.27925 5.03183 5.98576 4.91663 5.6713 4.80491C5.35685 4.68622 5.02143 4.62687 4.66506 4.62687C3.99422 4.62687 3.34435 4.81189 2.71544 5.18195C2.09353 5.54501 1.58341 6.08613 1.1851 6.80529C0.7868 7.51747 0.587646 8.40071 0.587646 9.45503C0.587646 10.4394 0.751861 11.417 1.08029 12.3875C1.4157 13.351 1.8175 14.168 2.28569 14.8382C2.69099 15.4038 3.0858 15.889 3.47014 16.294C3.85447 16.6989 4.30169 16.9014 4.8118 16.9014C5.14722 16.9014 5.43721 16.8455 5.68178 16.7338C5.93335 16.6222 6.1954 16.5105 6.46792 16.3987C6.74743 16.287 7.09333 16.2312 7.50562 16.2312C7.93187 16.2312 8.27078 16.287 8.52235 16.3987C8.77391 16.5035 9.01849 16.6117 9.25607 16.7234C9.49368 16.8281 9.79767 16.8805 10.168 16.8805C10.72 16.8805 11.1917 16.6711 11.583 16.2521C11.9813 15.8331 12.3516 15.3758 12.6941 14.8802C13.0854 14.3076 13.365 13.7874 13.5326 13.3196C13.7073 12.8518 13.7982 12.6039 13.8051 12.5761C13.7912 12.5691 13.6724 12.5062 13.4488 12.3875C13.2322 12.2688 12.9806 12.0838 12.6941 11.8324C12.4146 11.5741 12.1665 11.2355 11.9498 10.8165C11.7402 10.3976 11.6354 9.88793 11.6354 9.28743C11.6354 8.76377 11.7193 8.31343 11.887 7.93639C12.0547 7.55238 12.2504 7.23818 12.474 6.9938C12.6976 6.74245 12.9003 6.55393 13.0819 6.42826C13.2636 6.29559 13.365 6.21879 13.3859 6.19785C13.0225 5.67418 12.6173 5.30064 12.17 5.07722C11.7298 4.84681 11.3245 4.70717 10.9542 4.65829C10.5837 4.60941 10.3217 4.58497 10.168 4.58497ZM9.5915 3.25488C9.84303 2.94767 10.0492 2.59856 10.2099 2.20756C10.3706 1.80958 10.451 1.40113 10.451 0.982198C10.451 0.856522 10.4406 0.7483 10.4196 0.657532C10.0143 0.671496 9.58795 0.793683 9.14077 1.02409C8.69355 1.2545 8.32319 1.54426 8.0297 1.89336C7.79911 2.1517 7.59296 2.47987 7.41128 2.87785C7.22959 3.26885 7.13875 3.6738 7.13875 4.09273C7.13875 4.15557 7.14224 4.21492 7.14923 4.27078C7.15623 4.32664 7.16321 4.36503 7.1702 4.38598C7.24008 4.39995 7.31345 4.40693 7.39031 4.40693C7.76067 4.40693 8.15199 4.29871 8.56427 4.08226C8.97656 3.85884 9.31896 3.58304 9.5915 3.25488Z" fill="white"/>
</g>
<defs>
<clipPath id="clip0_1273_2784">
<rect width="14" height="17.7188" fill="white"/>
</clipPath>
</defs>
</svg>
