<svg width="48" height="48" viewBox="0 0 48 48" fill="none" xmlns="http://www.w3.org/2000/svg">
<path d="M18 42H30M24 6C17.3726 6 12 11.3726 12 18C12 20.429 12.7217 22.6894 13.9623 24.5786C15.8701 27.4836 16.8232 28.9352 16.947 29.1522C18.0486 31.082 17.8457 30.4014 17.9844 32.6191C18 32.8684 18 33.2458 18 34C18 35.1046 18.8954 36 20 36L28 36C29.1046 36 30 35.1046 30 34C30 33.2458 30 32.8684 30.0156 32.6191C30.1542 30.4014 29.9502 31.082 31.0518 29.1522C31.1756 28.9352 32.1303 27.4836 34.0381 24.5786C35.2787 22.6894 36.0004 20.429 36.0004 18C36.0004 11.3726 30.6274 6 24 6Z" stroke="#404040" stroke-width="4" stroke-linecap="round" stroke-linejoin="round"/>
</svg>
