<svg width="24" height="24" viewBox="0 0 24 24" fill="none" xmlns="http://www.w3.org/2000/svg">
<path d="M14.105 17.082C13.416 17.367 12.702 17.5 12 17.5C8.963 17.5 6.5 15.037 6.5 12C6.5 8.963 8.963 6.5 12 6.5C15.037 6.5 17.5 8.963 17.5 12V12.916C17.5 13.865 16.73 14.634 15.782 14.634C14.834 14.634 14.064 13.864 14.064 12.916V12M14.064 12C14.064 10.86 13.141 9.938 12.002 9.938C10.862 9.938 9.94 10.861 9.94 12C9.94 13.139 10.863 14.062 12.002 14.062C13.141 14.062 14.064 13.14 14.064 12ZM12 22C17.5228 22 22 17.5228 22 12C22 6.47715 17.5228 2 12 2C6.47715 2 2 6.47715 2 12C2 17.5228 6.47715 22 12 22Z" stroke="#0A0A0B" stroke-width="1.5" stroke-linecap="round" stroke-linejoin="round"/>
</svg>
