<svg width="96" height="96" viewBox="0 0 96 96" fill="none" xmlns="http://www.w3.org/2000/svg">
<g clip-path="url(#clip0_1273_2741)">
<path d="M65.8111 9.30432C68.1907 2.20672 59.2025 -3.37408 54.0095 2.2976L13.8559 46.1453C9.75355 50.6253 12.8716 57.9417 19.0156 57.9417H38.3359C38.9913 57.9417 39.5148 58.601 39.2959 59.296L30.6163 86.8173C28.375 93.9251 37.3772 99.3459 42.4959 93.6576L82.1836 49.5706C86.2284 45.0778 83.0988 37.8189 76.9843 37.8189H57.6639C57.3337 37.8125 57.0265 37.6474 56.8371 37.376C56.6489 37.1046 56.6015 36.7603 56.7103 36.448L65.8111 9.30432Z" fill="#F9F5F0"/>
<path d="M65.8111 9.30432C68.1907 2.20672 59.2025 -3.37408 54.0095 2.2976L13.8559 46.1453C9.75355 50.6253 12.8716 57.9417 19.0156 57.9417H38.3359C38.9913 57.9417 39.5148 58.601 39.2959 59.296L30.6163 86.8173C28.375 93.9251 37.3772 99.3459 42.4959 93.6576L82.1836 49.5706C86.2284 45.0778 83.0988 37.8189 76.9843 37.8189H57.6639C57.3337 37.8125 57.0265 37.6474 56.8371 37.376C56.6489 37.1046 56.6015 36.7603 56.7103 36.448L65.8111 9.30432Z" fill="url(#paint0_radial_1273_2741)" fill-opacity="0.6"/>
</g>
<defs>
<radialGradient id="paint0_radial_1273_2741" cx="0" cy="0" r="1" gradientUnits="userSpaceOnUse" gradientTransform="translate(47.9995 47.9991) rotate(90) scale(48.0344 76.958)">
<stop stop-color="#FF7A97"/>
<stop offset="0.326923" stop-color="#A44FFF"/>
<stop offset="0.66" stop-color="#5156EE"/>
<stop offset="1" stop-color="#0C4DFF"/>
</radialGradient>
<clipPath id="clip0_1273_2741">
<rect width="96" height="96" fill="white"/>
</clipPath>
</defs>
</svg>
