<svg width="48" height="48" viewBox="0 0 48 48" fill="none" xmlns="http://www.w3.org/2000/svg">
<path d="M38 38L32 32M20.0004 40H14.3938C12.158 40 11.0384 40 10.1836 39.5645C9.43095 39.181 8.81947 38.5684 8.43597 37.8158C8 36.9601 8 35.8406 8 33.6004V14.4004C8 12.1602 8 11.0392 8.43597 10.1836C8.81947 9.43095 9.43095 8.81947 10.1836 8.43597C11.0392 8 12.1602 8 14.4004 8H33.6004C35.8406 8 36.9591 8 37.8148 8.43597C38.5674 8.81947 39.181 9.43095 39.5645 10.1836C40 11.0384 40 12.158 40 14.3938V20.0004M27 34C23.134 34 20 30.866 20 27C20 23.134 23.134 20 27 20C30.866 20 34 23.134 34 27C34 30.866 30.866 34 27 34Z" stroke="#404040" stroke-width="4" stroke-linecap="round" stroke-linejoin="round"/>
</svg>
