<svg width="48" height="48" viewBox="0 0 48 48" fill="none" xmlns="http://www.w3.org/2000/svg">
<path d="M18.2929 18.1468C18.6345 17.0943 19.2602 16.1575 20.1015 15.4386C20.9427 14.7196 21.9675 14.2472 23.0605 14.0738C24.1534 13.9004 25.2723 14.0324 26.2948 14.4557C27.3173 14.8789 28.2028 15.5771 28.8534 16.4723C29.504 17.3674 29.8937 18.4247 29.9806 19.5279C30.0676 20.6311 29.8476 21.7372 29.3453 22.7232C28.843 23.7093 28.0786 24.5366 27.1351 25.1149C26.1916 25.6931 25.1065 25.9991 23.9999 25.9991V27.9991M24.0995 33.9996V34.1996L23.9003 34.199V33.9996H24.0995ZM26.4921 6.91759L28.934 8.99858C29.5492 9.52286 30.3131 9.83982 31.1188 9.90411L34.3169 10.159C36.1972 10.309 37.6907 11.8016 37.8407 13.6819L38.095 16.8805C38.1593 17.6862 38.4774 18.4512 39.0017 19.0664L41.0817 21.5076C42.3052 22.9433 42.3054 25.0551 41.0819 26.4907L39.0019 28.9323C38.4776 29.5476 38.1599 30.3128 38.0956 31.1186L37.8397 34.3166C37.6897 36.1969 36.1985 37.6904 34.3183 37.8404L31.119 38.0957C30.3133 38.16 29.5487 38.4761 28.9335 39.0004L26.4921 41.0815C25.0564 42.3049 22.9434 42.3052 21.5077 41.0817L19.0663 39.0006C18.4511 38.4763 17.6865 38.1596 16.8808 38.0953L13.6815 37.8404C11.8013 37.6904 10.3101 36.1973 10.1601 34.317L9.9042 31.1188C9.8399 30.313 9.52223 29.5484 8.99795 28.9332L6.91787 26.4908C5.69442 25.0552 5.69385 22.9441 6.9173 21.5084L8.99925 19.066C9.52353 18.4508 9.83815 17.6862 9.90245 16.8805L10.1583 13.6822C10.3083 11.802 11.8038 10.3088 13.6841 10.1588L16.8798 9.90391C17.6855 9.83962 18.4505 9.52292 19.0657 8.99864L21.5079 6.91759C22.9436 5.69414 25.0564 5.69414 26.4921 6.91759Z" stroke="#404040" stroke-width="4" stroke-linecap="round" stroke-linejoin="round"/>
</svg>
